<?xml version="1.0" encoding="utf-8"?>
<!-- Generator: Adobe Illustrator 23.1.0, SVG Export Plug-In . SVG Version: 6.00 Build 0)  -->
<svg version="1.1" id="Layer_1" xmlns="http://www.w3.org/2000/svg" xmlns:xlink="http://www.w3.org/1999/xlink" x="0px" y="0px"
	 viewBox="0 0 24 24" style="enable-background:new 0 0 24 24;" xml:space="preserve">
<style type="text/css">
	.st0{fill:#FFFFFF;}
</style>
<polygon class="st0" points="9,1.6 22.4,1.6 22.4,4.6 11.3,4.6 "/>
<polygon class="st0" points="1,1.1 1,22.5 22.6,22.5 22.4,5.5 12,5.2 8.6,1.1 "/>
<g>
	<path d="M23,4V2.1C23,1.5,22.5,1,21.9,1H9.8L9,0H1.1C0.5,0,0,0.5,0,1.1v21.8C0,23.5,0.5,24,1.1,24h21.8c0.6,0,1.1-0.5,1.1-1.1V5.1
		C24,4.5,23.6,4.1,23,4z M22,22H2V2h6l3,4h11V22z M22,4H12l-1.5-2H22V4z"/>
	<path d="M10.2,11.5c-0.2-0.2-0.6-0.2-0.8,0l-2.3,2.3C7,14,7,14.4,7.2,14.6l2.3,2.3c0.2,0.2,0.6,0.2,0.8,0s0.2-0.6,0-0.8l-1.9-1.9
		l1.9-1.9C10.4,12.1,10.4,11.7,10.2,11.5z"/>
	<path d="M13.8,16.9c0.2,0.2,0.6,0.2,0.8,0l2.3-2.3c0.2-0.2,0.2-0.6,0-0.8l-2.3-2.3c-0.2-0.2-0.6-0.2-0.8,0s-0.2,0.6,0,0.8l1.9,1.9
		l-1.9,1.9C13.6,16.3,13.6,16.6,13.8,16.9z"/>
</g>
</svg>
